<svg xmlns="http://www.w3.org/2000/svg" viewBox="0 0 64 64" width="64" height="64" role="img" aria-label="Iris">
  <!-- Iris favicon — robot diaphragm, simplified for tiny render (16-32px).
       Drops the tick marks, HUD overlay, and crosshair from the full logo
       to keep the silhouette readable at small sizes. -->
  <defs>
    <linearGradient id="rim" x1="0" y1="0" x2="0" y2="1">
      <stop offset="0%" stop-color="#cbd5e1" stop-opacity="0.55"/>
      <stop offset="100%" stop-color="#1e293b" stop-opacity="0.7"/>
    </linearGradient>
    <linearGradient id="refract" x1="0" y1="0.5" x2="1" y2="0">
      <stop offset="0%" stop-color="#ffffff" stop-opacity="0.45"/>
      <stop offset="50%" stop-color="#ffffff" stop-opacity="0.15"/>
      <stop offset="100%" stop-color="#ffffff" stop-opacity="0"/>
    </linearGradient>
  </defs>
  <!-- Transparent background — adapts to dark/light browser themes -->
  <g transform="translate(32 32)">
    <circle r="28" fill="none" stroke="url(#rim)" stroke-width="1.2"/>
    <circle r="26" fill="none"/>
    <g stroke="#000000" stroke-width="0.18" transform="scale(0.306)">
      <g transform="rotate(-90)"><path d="M 85 0 A 85 85 0 0 1 35.93 77.03 Q 5 30 5.92 12.69 Q 40 5 85 0 Z" fill="#ff2d20" opacity="0.55"/><path d="M 85 0 A 85 85 0 0 1 35.93 77.03 Q 5 30 5.92 12.69 Q 40 5 85 0 Z" fill="url(#refract)"/></g>
      <g transform="rotate(-38.57)"><path d="M 85 0 A 85 85 0 0 1 35.93 77.03 Q 5 30 5.92 12.69 Q 40 5 85 0 Z" fill="#ff9500" opacity="0.55"/><path d="M 85 0 A 85 85 0 0 1 35.93 77.03 Q 5 30 5.92 12.69 Q 40 5 85 0 Z" fill="url(#refract)"/></g>
      <g transform="rotate(12.86)"><path d="M 85 0 A 85 85 0 0 1 35.93 77.03 Q 5 30 5.92 12.69 Q 40 5 85 0 Z" fill="#ffcc00" opacity="0.55"/><path d="M 85 0 A 85 85 0 0 1 35.93 77.03 Q 5 30 5.92 12.69 Q 40 5 85 0 Z" fill="url(#refract)"/></g>
      <g transform="rotate(64.29)"><path d="M 85 0 A 85 85 0 0 1 35.93 77.03 Q 5 30 5.92 12.69 Q 40 5 85 0 Z" fill="#34c759" opacity="0.55"/><path d="M 85 0 A 85 85 0 0 1 35.93 77.03 Q 5 30 5.92 12.69 Q 40 5 85 0 Z" fill="url(#refract)"/></g>
      <g transform="rotate(115.72)"><path d="M 85 0 A 85 85 0 0 1 35.93 77.03 Q 5 30 5.92 12.69 Q 40 5 85 0 Z" fill="#30c9d4" opacity="0.55"/><path d="M 85 0 A 85 85 0 0 1 35.93 77.03 Q 5 30 5.92 12.69 Q 40 5 85 0 Z" fill="url(#refract)"/></g>
      <g transform="rotate(167.15)"><path d="M 85 0 A 85 85 0 0 1 35.93 77.03 Q 5 30 5.92 12.69 Q 40 5 85 0 Z" fill="#007aff" opacity="0.55"/><path d="M 85 0 A 85 85 0 0 1 35.93 77.03 Q 5 30 5.92 12.69 Q 40 5 85 0 Z" fill="url(#refract)"/></g>
      <g transform="rotate(218.58)"><path d="M 85 0 A 85 85 0 0 1 35.93 77.03 Q 5 30 5.92 12.69 Q 40 5 85 0 Z" fill="#af52de" opacity="0.55"/><path d="M 85 0 A 85 85 0 0 1 35.93 77.03 Q 5 30 5.92 12.69 Q 40 5 85 0 Z" fill="url(#refract)"/></g>
    </g>
    <polygon points="0,-4 3.6,-1.7 3.6,1.7 0,4 -3.6,1.7 -3.6,-1.7 -1.8,-3.6" fill="#000000"/>
    <circle r="2" fill="#ffffff"/>
    <circle r="0.7" fill="#7ddffe"/>
  </g>
</svg>
